<svg version="1.1" id="Layer_1" xmlns="http://www.w3.org/2000/svg" xmlns:xlink="http://www.w3.org/1999/xlink" x="0px" y="0px"
	 width="100%" viewBox="0 0 500 500" enable-background="new 0 0 500 500" xml:space="preserve">
<path fill="#00A4BB" opacity="1.000000" stroke="none" 
	d="
M35.000000,501.000000 
	C23.675400,501.000000 12.350801,501.000000 1.044050,501.000000 
	C1.044050,334.333313 1.044050,167.666656 1.044050,1.000000 
	C12.079627,1.000000 23.071156,1.000000 34.531342,1.468657 
	C35.000000,168.291550 35.000000,334.645782 35.000000,501.000000 
z"/>
<path fill="#009DB6" opacity="1.000000" stroke="none" 
	d="
M35.468658,501.000000 
	C35.000000,334.645782 35.000000,168.291550 35.000000,1.468657 
	C45.687561,1.000000 56.375122,1.000000 67.531342,1.468657 
	C68.000000,168.291550 68.000000,334.645782 68.000000,501.000000 
	C57.312439,501.000000 46.624878,501.000000 35.468658,501.000000 
z"/>
<path fill="#004879" opacity="1.000000" stroke="none" 
	d="
M468.000000,1.000000 
	C478.991486,1.000000 489.982971,1.000000 500.956360,1.000000 
	C500.956360,167.666672 500.956360,334.333344 500.956360,501.000000 
	C490.254272,501.000000 479.595795,501.000000 468.468658,500.531342 
	C468.000000,333.708466 468.000000,167.354233 468.000000,1.000000 
z"/>
<path fill="#0097B1" opacity="1.000000" stroke="none" 
	d="
M68.468658,501.000000 
	C68.000000,334.645782 68.000000,168.291550 68.000000,1.468657 
	C77.354225,1.000000 86.708458,1.000000 96.531342,1.468657 
	C97.000023,68.727219 96.970932,135.517197 97.097321,202.306854 
	C97.102882,205.243347 98.530495,208.177170 99.122437,211.409485 
	C97.459480,213.016830 95.715256,214.134995 94.545547,215.686340 
	C93.134354,217.557922 91.059937,220.036926 91.428253,221.803558 
	C91.740898,223.303116 95.062134,224.281662 97.159386,225.261078 
	C98.327301,225.806503 99.714302,225.882767 101.002090,226.628433 
	C101.001083,318.390930 101.000542,409.695465 101.000000,501.000000 
	C90.312439,501.000000 79.624878,501.000000 68.468658,501.000000 
z"/>
<path fill="#004F7E" opacity="1.000000" stroke="none" 
	d="
M467.531342,1.000000 
	C468.000000,167.354233 468.000000,333.708466 468.000000,500.531342 
	C458.979095,501.000000 449.958221,501.000000 440.468658,500.531342 
	C440.002258,413.109406 440.004517,326.156158 440.276184,238.998413 
	C441.868103,238.020157 443.190674,237.246384 445.157806,236.095520 
	C442.224579,235.468582 440.021545,234.997711 437.856140,234.026367 
	C437.929199,230.865326 437.995300,228.204758 437.995514,225.544189 
	C438.001068,150.696121 438.000000,75.848061 438.000000,1.000000 
	C447.687561,1.000000 457.375122,1.000000 467.531342,1.000000 
z"/>
<path fill="#01618B" opacity="1.000000" stroke="none" 
	d="
M346.000000,1.000000 
	C355.687561,1.000000 365.375122,1.000000 375.531342,1.468657 
	C375.997009,76.048492 375.993988,150.159668 375.557617,224.297791 
	C371.241638,223.777847 367.358978,223.230988 362.042450,222.482147 
	C369.262115,229.812973 375.390533,236.267120 381.803009,242.425522 
	C384.149353,244.678925 384.372681,246.447235 382.850616,249.239822 
	C378.679962,256.891907 374.797485,264.701111 370.196808,273.619171 
	C373.521027,272.401947 375.648926,271.622772 378.601196,270.541748 
	C376.848206,275.113190 375.634521,278.880707 373.996002,282.453430 
	C363.439911,305.470703 352.790955,328.445312 341.979187,351.067657 
	C341.190582,348.004028 340.086334,345.308624 340.076263,342.609131 
	C339.922363,301.283051 339.911224,259.956421 340.160828,218.432007 
	C343.136017,216.441742 346.016663,214.852997 348.280914,212.635010 
	C348.615997,212.306793 346.038391,209.005081 345.065857,206.744049 
	C345.548889,204.119263 345.970276,201.829620 345.971497,199.539734 
	C346.006775,133.359833 346.000000,67.179916 346.000000,1.000000 
z"/>
<path fill="#0090AD" opacity="1.000000" stroke="none" 
	d="
M101.468658,501.000000 
	C101.000542,409.695465 101.001083,318.390930 101.440422,226.583832 
	C105.956825,225.128372 110.199585,224.605484 114.071907,223.118134 
	C119.402985,221.070480 124.453995,218.293671 129.908630,216.156113 
	C130.461502,218.929153 130.965118,221.375214 130.966187,223.821487 
	C131.006210,316.214325 131.000000,408.607147 131.000000,501.000000 
	C121.312439,501.000000 111.624878,501.000000 101.468658,501.000000 
z"/>
<path fill="#00789B" opacity="1.000000" stroke="none" 
	d="
M259.000000,501.000000 
	C248.979111,501.000000 238.958206,501.000000 228.468658,500.531342 
	C228.000656,404.812683 228.001297,309.562683 228.407303,214.271759 
	C231.454315,214.515076 234.094360,215.017242 236.737976,215.036774 
	C241.747696,215.073776 244.226883,217.331039 244.842880,222.389679 
	C248.157074,249.606659 253.054581,276.526093 260.332977,303.386322 
	C259.756409,306.775299 259.051117,309.715088 259.048157,312.655579 
	C258.984680,375.436981 259.000000,438.218506 259.000000,501.000000 
z"/>
<path fill="#007D9F" opacity="1.000000" stroke="none" 
	d="
M228.001953,214.312683 
	C228.001297,309.562683 228.000656,404.812683 228.000000,500.531342 
	C218.979111,501.000000 209.958206,501.000000 200.468658,500.531342 
	C199.999985,417.068970 200.010727,334.075256 199.953186,251.081589 
	C199.951263,248.305771 199.258957,245.530441 198.894226,242.385925 
	C201.738434,233.940842 204.671280,225.896149 207.374832,217.775116 
	C208.695419,213.808350 211.149734,212.299683 215.221542,212.864838 
	C219.466873,213.454102 223.740631,213.838638 228.001953,214.312683 
z"/>
<path fill="#005482" opacity="1.000000" stroke="none" 
	d="
M437.531342,1.000000 
	C438.000000,75.848061 438.001068,150.696121 437.995514,225.544189 
	C437.995300,228.204758 437.929199,230.865326 437.424957,234.028214 
	C429.314819,233.272141 421.673553,232.013733 413.842499,230.724091 
	C413.536469,228.917084 413.282532,227.302872 412.987671,225.696167 
	C411.372711,216.895233 409.747711,208.096146 408.029572,198.869202 
	C407.621979,195.484634 407.042053,192.527527 407.039581,189.569931 
	C406.987335,126.713318 407.000000,63.856655 407.000000,1.000000 
	C417.020905,1.000000 427.041779,1.000000 437.531342,1.000000 
z"/>
<path fill="#005A86" opacity="1.000000" stroke="none" 
	d="
M406.531342,1.000000 
	C407.000000,63.856655 406.987335,126.713318 407.039581,189.569931 
	C407.042053,192.527527 407.621979,195.484634 407.979767,199.214157 
	C404.694427,206.472214 401.367035,212.960541 398.028961,219.443344 
	C394.064026,227.143646 394.052582,227.196732 385.669769,226.066757 
	C382.421814,225.628967 379.215973,224.878738 375.990967,224.270844 
	C375.993988,150.159668 375.997009,76.048492 376.000000,1.468657 
	C386.020905,1.000000 396.041779,1.000000 406.531342,1.000000 
z"/>
<path fill="#016C93" opacity="1.000000" stroke="none" 
	d="
M284.000000,1.000000 
	C295.020905,1.000000 306.041779,1.000000 317.531342,1.468657 
	C317.999969,66.912735 318.013947,131.888168 317.957153,196.863541 
	C317.954437,199.994751 317.328491,203.125397 316.533905,206.360962 
	C310.261414,206.259125 304.447388,206.062241 298.634216,205.843567 
	C292.489410,205.612457 290.489868,203.578400 289.981049,197.365265 
	C289.180969,187.596451 288.267456,177.836960 287.449036,168.069580 
	C285.687744,147.049011 283.956421,126.025932 282.544922,104.817749 
	C283.251312,102.576874 283.947418,100.522789 283.951813,98.467255 
	C284.020325,65.978279 283.999969,33.489117 284.000000,1.000000 
z"/>
<path fill="#018BA9" opacity="1.000000" stroke="none" 
	d="
M131.468567,501.000000 
	C131.000000,408.607147 131.006210,316.214325 130.966187,223.821487 
	C130.965118,221.375214 130.461502,218.929153 130.161346,215.880615 
	C138.717148,213.377457 147.303848,211.476669 155.913162,210.072540 
	C155.957321,238.193039 155.961563,265.816925 156.029602,293.440704 
	C156.035782,295.950684 155.157547,299.029236 158.896225,300.372528 
	C152.147842,323.622009 145.386032,346.495636 138.631638,369.371460 
	C136.681335,375.976685 138.668732,379.157654 145.714905,379.880859 
	C148.047226,380.120209 150.503632,379.150604 152.924149,379.218689 
	C152.963318,420.135773 152.981659,460.567902 153.000000,501.000000 
	C145.979050,501.000000 138.958099,501.000000 131.468567,501.000000 
z"/>
<path fill="#005381" opacity="1.000000" stroke="none" 
	d="
M440.006805,239.202881 
	C440.004517,326.156158 440.002258,413.109406 440.000000,500.531342 
	C432.312408,501.000000 424.624847,501.000000 416.468292,500.571899 
	C415.924805,496.198669 415.852722,492.253448 415.775360,488.308380 
	C415.592285,478.977875 415.262268,469.647430 415.262817,460.316956 
	C415.263397,450.986542 415.757355,441.655762 415.738098,432.325775 
	C415.713470,420.376190 415.235565,408.427185 415.242188,396.478088 
	C415.248810,384.528870 415.775818,372.579865 415.772949,360.630798 
	C415.770081,348.682129 415.286102,336.734161 415.210114,324.784668 
	C415.127899,311.855896 415.162354,298.923340 415.435974,285.998535 
	C415.478668,283.982819 417.064728,281.999786 418.135925,280.323730 
	C419.114929,281.059723 419.895142,281.473633 421.531799,282.341919 
	C420.061066,272.645752 418.869904,263.794128 417.304932,255.009079 
	C416.745697,251.869736 417.370789,250.214890 420.380432,248.853333 
	C427.019135,245.850021 433.475861,242.444382 440.006805,239.202881 
z"/>
<path fill="#0083A3" opacity="1.000000" stroke="none" 
	d="
M198.888458,242.754883 
	C199.258957,245.530441 199.951263,248.305771 199.953186,251.081589 
	C200.010727,334.075256 199.999985,417.068970 200.000000,500.531342 
	C191.645767,501.000000 183.291534,501.000000 174.468658,500.531342 
	C173.999985,444.019348 174.016754,387.975983 173.949844,331.932739 
	C173.946548,329.167511 173.213699,326.403168 172.831146,323.265930 
	C174.899460,316.086090 176.820221,309.233673 179.040756,302.479858 
	C185.593048,282.550629 192.263962,262.660400 198.888458,242.754883 
z"/>
<path fill="#00668F" opacity="1.000000" stroke="none" 
	d="
M316.992767,206.256317 
	C317.328491,203.125397 317.954437,199.994751 317.957153,196.863541 
	C318.013947,131.888168 317.999969,66.912735 318.000000,1.468657 
	C327.020905,1.000000 336.041779,1.000000 345.531342,1.000000 
	C346.000000,67.179916 346.006775,133.359833 345.971497,199.539734 
	C345.970276,201.829620 345.548889,204.119263 344.654663,206.723907 
	C340.070160,206.739136 336.158356,206.277695 332.237457,206.180099 
	C327.159668,206.053726 322.074677,206.217468 316.992767,206.256317 
z"/>
<path fill="#005885" opacity="1.000000" stroke="none" 
	d="
M417.937134,280.001648 
	C417.064728,281.999786 415.478668,283.982819 415.435974,285.998535 
	C415.162354,298.923340 415.127899,311.855896 415.210114,324.784668 
	C415.286102,336.734161 415.770081,348.682129 415.772949,360.630798 
	C415.775818,372.579865 415.248810,384.528870 415.242188,396.478088 
	C415.235565,408.427185 415.713470,420.376190 415.738098,432.325775 
	C415.757355,441.655762 415.263397,450.986542 415.262817,460.316956 
	C415.262268,469.647430 415.592285,478.977875 415.775360,488.308380 
	C415.852722,492.253448 415.924805,496.198669 415.999664,500.571899 
	C408.979034,501.000000 401.958099,501.000000 394.468567,500.531342 
	C393.999969,435.697266 394.035919,371.331757 393.906464,306.966583 
	C393.899078,303.289337 392.540192,299.614807 391.840576,295.561340 
	C395.502777,285.073212 399.134705,274.962769 403.118591,263.872528 
	C408.443085,269.667938 413.190094,274.834778 417.937134,280.001648 
z"/>
<path fill="#0092AE" opacity="1.000000" stroke="none" 
	d="
M99.295700,211.112244 
	C98.530495,208.177170 97.102882,205.243347 97.097321,202.306854 
	C96.970932,135.517197 97.000023,68.727219 97.000000,1.468657 
	C104.687576,1.000000 112.375153,1.000000 120.531364,1.468657 
	C121.000008,64.592789 120.986389,127.248276 121.042458,189.903702 
	C121.045105,192.864471 121.666710,195.824692 121.677032,198.963013 
	C114.001244,203.131317 106.648476,207.121780 99.295700,211.112244 
z"/>
<path fill="#007197" opacity="1.000000" stroke="none" 
	d="
M259.468658,501.000000 
	C259.000000,438.218506 258.984680,375.436981 259.048157,312.655579 
	C259.051117,309.715088 259.756409,306.775299 260.511688,303.751953 
	C262.097870,308.116974 263.094238,312.636322 264.552460,317.001373 
	C271.303101,337.208984 279.491211,356.790833 290.329041,375.630615 
	C289.912903,384.319061 289.352936,392.529388 289.289062,400.743622 
	C289.216461,410.083130 289.725220,419.426025 289.726410,428.767517 
	C289.727631,438.108917 289.340668,447.449768 289.258240,456.792023 
	C289.168610,466.946228 289.156311,477.102631 289.266388,487.256439 
	C289.316071,491.839722 289.743805,496.418945 290.000000,501.000000 
	C279.979095,501.000000 269.958221,501.000000 259.468658,501.000000 
z"/>
<path fill="#008DAB" opacity="1.000000" stroke="none" 
	d="
M122.000061,198.785172 
	C121.666710,195.824692 121.045105,192.864471 121.042458,189.903702 
	C120.986389,127.248276 121.000008,64.592789 121.000000,1.468657 
	C128.020950,1.000000 135.041901,1.000000 142.531433,1.468657 
	C143.000458,65.907837 143.000900,129.878357 142.598984,193.954102 
	C135.464432,195.634613 128.732239,197.209885 122.000061,198.785172 
z"/>
<path fill="#005C88" opacity="1.000000" stroke="none" 
	d="
M391.810242,295.938995 
	C392.540192,299.614807 393.899078,303.289337 393.906464,306.966583 
	C394.035919,371.331757 393.999969,435.697266 394.000000,500.531342 
	C386.645752,501.000000 379.291504,501.000000 371.468628,500.531342 
	C371.000000,452.321411 371.020447,404.580139 370.947357,356.838989 
	C370.943146,354.076599 370.179077,351.315430 369.819275,348.207031 
	C377.183411,330.553253 384.496826,313.246124 391.810242,295.938995 
z"/>
<path fill="#0089A8" opacity="1.000000" stroke="none" 
	d="
M143.001358,193.848877 
	C143.000900,129.878357 143.000458,65.907837 143.000000,1.468657 
	C149.354401,1.000000 155.708786,1.000000 162.531586,1.468657 
	C163.000671,65.512543 163.001328,129.087769 162.543396,192.761169 
	C155.723663,193.189178 149.362518,193.519028 143.001358,193.848877 
z"/>
<path fill="#0085A5" opacity="1.000000" stroke="none" 
	d="
M163.001984,192.662994 
	C163.001328,129.087769 163.000671,65.512543 163.000000,1.468657 
	C169.354401,1.000000 175.708786,1.000000 182.531586,1.468657 
	C183.000000,63.023499 183.003189,124.109680 182.989899,185.195862 
	C182.989288,188.022766 182.841171,190.849655 182.307373,193.717743 
	C175.569305,193.393631 169.285645,193.028320 163.001984,192.662994 
z"/>
<path fill="#0081A2" opacity="1.000000" stroke="none" 
	d="
M182.761765,193.676544 
	C182.841171,190.849655 182.989288,188.022766 182.989899,185.195862 
	C183.003189,124.109680 183.000000,63.023499 183.000000,1.468657 
	C189.354401,1.000000 195.708786,1.000000 202.531586,1.468657 
	C203.000000,56.923744 202.984375,111.910202 203.052719,166.896545 
	C203.055695,169.292023 203.829422,171.686554 204.200500,174.456390 
	C203.103058,177.619690 202.074020,180.417786 200.991241,183.194916 
	C196.161133,195.583115 196.060089,195.635818 182.761765,193.676544 
z"/>
<path fill="#006C93" opacity="1.000000" stroke="none" 
	d="
M290.468658,501.000000 
	C289.743805,496.418945 289.316071,491.839722 289.266388,487.256439 
	C289.156311,477.102631 289.168610,466.946228 289.258240,456.792023 
	C289.340668,447.449768 289.727631,438.108917 289.726410,428.767517 
	C289.725220,419.426025 289.216461,410.083130 289.289062,400.743622 
	C289.352936,392.529388 289.912903,384.319061 290.598267,375.860321 
	C297.938690,385.263123 307.608307,390.447479 319.104553,392.921692 
	C318.978577,401.199921 318.919556,409.061096 318.814484,416.921631 
	C318.617432,431.663757 318.213226,446.405823 318.234558,461.147369 
	C318.253754,474.431915 318.726990,487.715820 319.000000,501.000000 
	C309.645782,501.000000 300.291534,501.000000 290.468658,501.000000 
z"/>
<path fill="#00618B" opacity="1.000000" stroke="none" 
	d="
M369.768616,348.553680 
	C370.179077,351.315430 370.943146,354.076599 370.947357,356.838989 
	C371.020447,404.580139 371.000000,452.321411 371.000000,500.531342 
	C362.979095,501.000000 354.958191,501.000000 346.468628,500.531342 
	C346.000000,465.287201 346.019531,430.511688 345.954895,395.736328 
	C345.950684,393.484589 345.298370,391.234070 345.128662,388.698303 
	C352.356995,383.431366 356.358093,376.149353 360.070099,368.688049 
	C363.388000,362.018921 366.542175,355.268311 369.768616,348.553680 
z"/>
<path fill="#007E9F" opacity="1.000000" stroke="none" 
	d="
M204.244141,174.081528 
	C203.829422,171.686554 203.055695,169.292023 203.052719,166.896545 
	C202.984375,111.910202 203.000000,56.923744 203.000000,1.468657 
	C210.020950,1.000000 217.041901,1.000000 224.531097,1.424362 
	C224.962097,10.883012 224.977692,19.917902 224.874603,28.951437 
	C224.737961,40.924068 224.416428,52.895065 224.341812,64.867813 
	C224.243729,80.608086 224.230896,96.350296 224.418655,112.088852 
	C224.438309,113.735199 226.058090,115.362457 226.931839,117.367165 
	C219.366852,136.517670 211.805496,155.299606 204.244141,174.081528 
z"/>
<path fill="#0087A6" opacity="1.000000" stroke="none" 
	d="
M172.820572,323.638397 
	C173.213699,326.403168 173.946548,329.167511 173.949844,331.932739 
	C174.016754,387.975983 173.999985,444.019348 174.000000,500.531342 
	C167.312363,501.000000 160.624710,501.000000 153.468536,501.000000 
	C152.981659,460.567902 152.963318,420.135773 153.085968,378.928894 
	C155.762451,372.630676 158.771530,367.269958 160.736526,361.550568 
	C165.045151,349.009552 168.824875,336.286896 172.820572,323.638397 
z"/>
<path fill="#00668F" opacity="1.000000" stroke="none" 
	d="
M344.947540,388.982971 
	C345.298370,391.234070 345.950684,393.484589 345.954895,395.736328 
	C346.019531,430.511688 346.000000,465.287201 346.000000,500.531342 
	C337.312439,501.000000 328.624878,501.000000 319.468658,501.000000 
	C318.726990,487.715820 318.253754,474.431915 318.234558,461.147369 
	C318.213226,446.405823 318.617432,431.663757 318.814484,416.921631 
	C318.919556,409.061096 318.978577,401.199921 319.563110,392.911133 
	C328.657562,393.423828 337.072357,393.121338 344.947540,388.982971 
z"/>
<path fill="#01799C" opacity="1.000000" stroke="none" 
	d="
M226.935455,116.998581 
	C226.058090,115.362457 224.438309,113.735199 224.418655,112.088852 
	C224.230896,96.350296 224.243729,80.608086 224.341812,64.867813 
	C224.416428,52.895065 224.737961,40.924068 224.874603,28.951437 
	C224.977692,19.917902 224.962097,10.883012 224.999664,1.424362 
	C233.354233,1.000000 241.708466,1.000000 250.532837,1.414132 
	C251.048019,12.769288 250.972717,23.712595 251.180267,34.650536 
	C251.319458,41.985840 251.859695,49.313530 251.924057,56.789555 
	C249.823486,59.344990 247.348770,61.501534 246.324081,64.207230 
	C239.685135,81.737663 233.362045,99.387726 226.935455,116.998581 
z"/>
<path fill="#017398" opacity="1.000000" stroke="none" 
	d="
M252.220505,56.644623 
	C251.859695,49.313530 251.319458,41.985840 251.180267,34.650536 
	C250.972717,23.712595 251.048019,12.769288 251.001495,1.414132 
	C261.687561,1.000000 272.375122,1.000000 283.531342,1.000000 
	C283.999969,33.489117 284.020325,65.978279 283.951813,98.467255 
	C283.947418,100.522789 283.251312,102.576874 282.447906,104.380722 
	C281.652252,99.500992 281.332184,94.867912 280.909485,90.244217 
	C280.049469,80.836151 279.126923,71.433823 278.244965,62.027740 
	C277.892639,58.270691 275.758850,56.230560 272.088043,56.230507 
	C265.465515,56.230415 258.843018,56.492210 252.220505,56.644623 
z"/>
<path fill="#FCFDFE" opacity="1.000000" stroke="none" 
	d="
M251.924057,56.789551 
	C258.843018,56.492210 265.465515,56.230415 272.088043,56.230507 
	C275.758850,56.230560 277.892639,58.270691 278.244965,62.027740 
	C279.126923,71.433823 280.049469,80.836151 280.909485,90.244217 
	C281.332184,94.867912 281.652252,99.500992 282.115784,104.566849 
	C283.956421,126.025932 285.687744,147.049011 287.449036,168.069580 
	C288.267456,177.836960 289.180969,187.596451 289.981049,197.365265 
	C290.489868,203.578400 292.489410,205.612457 298.634216,205.843567 
	C304.447388,206.062241 310.261414,206.259125 316.533905,206.360947 
	C322.074677,206.217468 327.159668,206.053726 332.237457,206.180099 
	C336.158356,206.277695 340.070160,206.739136 344.397186,207.058929 
	C346.038391,209.005081 348.615997,212.306793 348.280914,212.635010 
	C346.016663,214.852997 343.136017,216.441742 339.741028,218.445297 
	C326.429688,219.282883 313.837708,220.108887 301.232452,220.461304 
	C293.573395,220.675446 292.657318,221.309235 293.729248,228.721619 
	C295.466766,240.736328 297.141174,252.761459 299.025391,264.753418 
	C304.008118,296.465240 310.050049,327.954773 319.942078,358.565033 
	C321.703735,364.016357 324.299927,369.198029 326.808838,375.219604 
	C334.193573,367.773987 338.556885,359.847382 342.172516,351.433960 
	C352.790955,328.445312 363.439911,305.470703 373.996002,282.453430 
	C375.634521,278.880707 376.848206,275.113190 378.601196,270.541748 
	C375.648926,271.622772 373.521027,272.401947 370.196808,273.619171 
	C374.797485,264.701111 378.679962,256.891907 382.850616,249.239822 
	C384.372681,246.447235 384.149353,244.678925 381.803009,242.425522 
	C375.390533,236.267120 369.262115,229.812973 362.042450,222.482147 
	C367.358978,223.230988 371.241638,223.777847 375.557617,224.297791 
	C379.215973,224.878738 382.421814,225.628967 385.669769,226.066757 
	C394.052582,227.196732 394.064026,227.143646 398.028961,219.443344 
	C401.367035,212.960541 404.694427,206.472214 408.076355,199.641388 
	C409.747711,208.096146 411.372711,216.895233 412.987671,225.696167 
	C413.282532,227.302872 413.536469,228.917084 413.842499,230.724091 
	C421.673553,232.013733 429.314819,233.272141 437.387329,234.528687 
	C440.021545,234.997711 442.224579,235.468582 445.157806,236.095520 
	C443.190674,237.246384 441.868103,238.020157 440.276184,238.998413 
	C433.475861,242.444382 427.019135,245.850021 420.380432,248.853333 
	C417.370789,250.214890 416.745697,251.869736 417.304932,255.009079 
	C418.869904,263.794128 420.061066,272.645752 421.531799,282.341919 
	C419.895142,281.473633 419.114929,281.059723 418.135925,280.323730 
	C413.190094,274.834778 408.443085,269.667938 403.118591,263.872528 
	C399.134705,274.962769 395.502777,285.073212 391.840576,295.561340 
	C384.496826,313.246124 377.183411,330.553253 369.819275,348.207031 
	C366.542175,355.268311 363.388000,362.018921 360.070099,368.688049 
	C356.358093,376.149353 352.356995,383.431366 345.128662,388.698303 
	C337.072357,393.121338 328.657562,393.423828 319.609253,392.493744 
	C307.608307,390.447479 297.938690,385.263123 290.673523,375.383911 
	C279.491211,356.790833 271.303101,337.208984 264.552460,317.001373 
	C263.094238,312.636322 262.097870,308.116974 260.710052,303.303070 
	C253.054581,276.526093 248.157074,249.606659 244.842880,222.389679 
	C244.226883,217.331039 241.747696,215.073776 236.737976,215.036774 
	C234.094360,215.017242 231.454315,214.515076 228.407303,214.271744 
	C223.740631,213.838638 219.466873,213.454102 215.221542,212.864838 
	C211.149734,212.299683 208.695419,213.808350 207.374832,217.775116 
	C204.671280,225.896149 201.738434,233.940842 198.894226,242.385925 
	C192.263962,262.660400 185.593048,282.550629 179.040756,302.479858 
	C176.820221,309.233673 174.899460,316.086090 172.831146,323.265930 
	C168.824875,336.286896 165.045151,349.009552 160.736526,361.550568 
	C158.771530,367.269958 155.762451,372.630676 153.065125,378.443909 
	C150.503632,379.150604 148.047226,380.120209 145.714905,379.880859 
	C138.668732,379.157654 136.681335,375.976685 138.631638,369.371460 
	C145.386032,346.495636 152.147842,323.622009 159.071991,300.039062 
	C164.845596,282.563599 170.340637,265.757477 176.102692,249.043396 
	C179.889404,238.059174 184.012375,227.189377 188.089157,216.307465 
	C189.402237,212.802551 188.523102,210.674103 184.718094,210.508972 
	C175.113495,210.092102 165.500305,209.873779 155.890549,209.575897 
	C147.303848,211.476669 138.717148,213.377457 129.877716,215.553726 
	C124.453995,218.293671 119.402985,221.070480 114.071907,223.118134 
	C110.199585,224.605484 105.956825,225.128372 101.440903,226.125854 
	C99.714302,225.882767 98.327301,225.806503 97.159386,225.261078 
	C95.062134,224.281662 91.740898,223.303116 91.428253,221.803558 
	C91.059937,220.036926 93.134354,217.557922 94.545547,215.686340 
	C95.715256,214.134995 97.459480,213.016830 99.122444,211.409500 
	C106.648476,207.121780 114.001244,203.131317 121.677032,198.963013 
	C128.732239,197.209885 135.464432,195.634613 142.598984,193.954102 
	C149.362518,193.519028 155.723663,193.189178 162.543396,192.761169 
	C169.285645,193.028320 175.569305,193.393631 182.307373,193.717743 
	C196.060089,195.635818 196.161133,195.583115 200.991241,183.194916 
	C202.074020,180.417786 203.103058,177.619690 204.200485,174.456390 
	C211.805496,155.299606 219.366852,136.517670 226.931839,117.367165 
	C233.362045,99.387726 239.685135,81.737663 246.324081,64.207230 
	C247.348770,61.501534 249.823486,59.344990 251.924057,56.789551 
M410.378571,266.130707 
	C412.247131,268.173157 414.115723,270.215607 415.984283,272.258057 
	C416.301727,266.056610 416.039185,260.421539 414.602142,255.103851 
	C413.067810,249.425964 414.763977,246.669601 420.104736,244.674881 
	C425.170074,242.783020 429.859589,239.885086 434.714386,237.429581 
	C427.957764,235.340942 421.629608,234.032806 415.239349,233.203156 
	C412.263458,232.816788 410.989990,231.890991 410.631989,228.742477 
	C409.883057,222.156204 408.609589,215.629593 407.341431,207.777344 
	C402.994507,216.033844 399.317780,223.017349 395.729889,229.832153 
	C387.708710,228.713974 380.171539,227.663269 372.634369,226.612579 
	C372.513123,227.065613 372.391907,227.518661 372.270691,227.971710 
	C376.645782,232.268936 380.875641,236.729431 385.452179,240.800201 
	C388.065765,243.124954 388.252075,245.017685 386.557190,248.008179 
	C383.355621,253.657257 380.604187,259.561462 377.039185,266.595795 
	C381.138977,264.554688 383.784698,263.206390 386.457489,261.913971 
	C390.776337,259.825562 395.446747,255.675873 399.348236,256.296600 
	C403.253937,256.917999 406.398865,262.320862 410.378571,266.130707 
M237.214447,139.836685 
	C230.054245,158.522690 222.894028,177.208679 215.265213,197.117599 
	C222.980164,197.995483 229.840805,198.725281 236.686691,199.573914 
	C240.906448,200.097000 242.206787,198.331268 242.067093,194.186615 
	C241.462402,176.245972 241.126480,158.296371 240.602859,140.352661 
	C240.569809,139.220123 239.771805,138.109940 238.994339,136.139465 
	C238.212402,137.763626 237.877426,138.459396 237.214447,139.836685 
z"/>
<path fill="#016991" opacity="1.000000" stroke="none" 
	d="
M341.979187,351.067657 
	C338.556885,359.847382 334.193573,367.773987 326.808838,375.219604 
	C324.299927,369.198029 321.703735,364.016357 319.942078,358.565033 
	C310.050049,327.954773 304.008118,296.465240 299.025391,264.753418 
	C297.141174,252.761459 295.466766,240.736328 293.729248,228.721619 
	C292.657318,221.309235 293.573395,220.675446 301.232452,220.461304 
	C313.837708,220.108887 326.429688,219.282883 339.447083,218.643219 
	C339.911224,259.956421 339.922363,301.283051 340.076263,342.609131 
	C340.086334,345.308624 341.190582,348.004028 341.979187,351.067657 
z"/>
<path fill="#0287A6" opacity="1.000000" stroke="none" 
	d="
M155.913162,210.072540 
	C165.500305,209.873779 175.113495,210.092102 184.718094,210.508972 
	C188.523102,210.674103 189.402237,212.802551 188.089157,216.307465 
	C184.012375,227.189377 179.889404,238.059174 176.102692,249.043396 
	C170.340637,265.757477 164.845596,282.563599 159.061386,299.664062 
	C155.157547,299.029236 156.035782,295.950684 156.029602,293.440704 
	C155.961563,265.816925 155.957321,238.193039 155.913162,210.072540 
z"/>
<path fill="#059FB7" opacity="1.000000" stroke="none" 
	d="
M410.127899,265.879303 
	C406.398865,262.320862 403.253937,256.917999 399.348236,256.296600 
	C395.446747,255.675873 390.776337,259.825562 386.457489,261.913971 
	C383.784698,263.206390 381.138977,264.554688 377.039185,266.595795 
	C380.604187,259.561462 383.355621,253.657257 386.557190,248.008179 
	C388.252075,245.017685 388.065765,243.124954 385.452179,240.800201 
	C380.875641,236.729431 376.645782,232.268936 372.270691,227.971710 
	C372.391907,227.518661 372.513123,227.065613 372.634369,226.612579 
	C380.171539,227.663269 387.708710,228.713974 395.729889,229.832153 
	C399.317780,223.017349 402.994507,216.033844 407.341431,207.777344 
	C408.609589,215.629593 409.883057,222.156204 410.631989,228.742477 
	C410.989990,231.890991 412.263458,232.816788 415.239349,233.203156 
	C421.629608,234.032806 427.957764,235.340942 434.714386,237.429581 
	C429.859589,239.885086 425.170074,242.783020 420.104736,244.674881 
	C414.763977,246.669601 413.067810,249.425964 414.602142,255.103851 
	C416.039185,260.421539 416.301727,266.056610 415.984283,272.258057 
	C414.115723,270.215607 412.247131,268.173157 410.127899,265.879303 
z"/>
<path fill="#067D9F" opacity="1.000000" stroke="none" 
	d="
M237.378448,139.495941 
	C237.877426,138.459396 238.212402,137.763626 238.994339,136.139465 
	C239.771805,138.109940 240.569809,139.220123 240.602859,140.352661 
	C241.126480,158.296371 241.462402,176.245972 242.067093,194.186615 
	C242.206787,198.331268 240.906448,200.097000 236.686691,199.573914 
	C229.840805,198.725281 222.980164,197.995483 215.265213,197.117599 
	C222.894028,177.208679 230.054245,158.522690 237.378448,139.495941 
z"/>
</svg>